<svg id="V5" xmlns="http://www.w3.org/2000/svg" viewBox="0 0 241.2 66.2"><defs><style>.cls-1{fill-rule:evenodd;}</style></defs><g id="White"><g id="Rectangle_2" data-name="Rectangle 2"><path class="cls-1" d="M64.3,6.6H90V.5H59.1c-8.8,0-9,7.5-9,7.5V30.6s.1,7.5,9,7.5H90V32H64.3c-4,0-8.1,1.1-8.1-5.2V22.2H90V16.1H56.2V11.8C56.2,5.4,60.3,6.6,64.3,6.6Z" transform="translate(0 -0.5)"></path></g><g id="Rectangle_2_copy" data-name="Rectangle 2 copy"><path class="cls-1" d="M181.9.5H151V6.6h25.7c4,0,8.1-1.1,8.1,5.2v4.3H151v6.1h33.8v4.6c0,6.3-4.1,5.2-8.1,5.2H151v6.1h30.9c8.8,0,9-7.5,9-7.5V8S190.8.5,181.9.5Z" transform="translate(0 -0.5)"></path></g><g id="B"><path class="cls-1" d="M131.6.5H100.7v30s.1,7.5,9,7.5h30.9V8S140.5.5,131.6.5ZM114.9,32c-4,0-8.1,1.1-8.1-5.2V22.2h27.7V32Zm19.6-19.6v3.8H106.8V6.6h19.7c4,0,8.1-1.1,8.1,5.2A2.14,2.14,0,0,0,134.5,12.4Z" transform="translate(0 -0.5)"></path></g><g id="Interactive_copy" data-name="Interactive copy"><path class="cls-1" d="M1.2,52.4H.4a.43.43,0,0,0-.4.4V66.1a.43.43,0,0,0,.4.4h.8a.43.43,0,0,0,.4-.4V52.8A.43.43,0,0,0,1.2,52.4Zm27.6,0h-.7a.43.43,0,0,0-.4.4V63.5h0L18.6,52.2h-.5a.43.43,0,0,0-.4.4V66.1a.43.43,0,0,0,.4.4h.7a.43.43,0,0,0,.4-.4V55.2h0l9.2,11.5h.4a.43.43,0,0,0,.4-.4V52.8A.43.43,0,0,0,28.8,52.4Zm23.6,0H43.9a.43.43,0,0,0-.4.4v.6a.43.43,0,0,0,.4.4h3.5V66.1a.43.43,0,0,0,.4.4h.8a.43.43,0,0,0,.4-.4V53.8h3.5a.43.43,0,0,0,.4-.4v-.6C52.7,52.6,52.6,52.4,52.4,52.4Zm22.9,0H67.4a.43.43,0,0,0-.4.4V66.1a.43.43,0,0,0,.4.4h7.9a.43.43,0,0,0,.4-.4v-.6a.43.43,0,0,0-.4-.4H68.6V60h5.8a.43.43,0,0,0,.4-.4V59a.43.43,0,0,0-.4-.4H68.6V53.7h6.7a.43.43,0,0,0,.4-.4v-.6A.45.45,0,0,0,75.3,52.4Zm25.6,4.3a4.35,4.35,0,0,0-4.4-4.3H91.3a.43.43,0,0,0-.4.4V66.1a.43.43,0,0,0,.4.4h.8a.43.43,0,0,0,.4-.4V61h3.8L99,66.3c0,.1.1.2.3.2h1a.37.37,0,0,0,.3-.6l-2.8-5.1A4.45,4.45,0,0,0,100.9,56.7Zm-4.5,2.9H92.5V53.8h3.9a3,3,0,0,1,2.9,2.8A2.87,2.87,0,0,1,96.4,59.6Zm24.9-7.2c-.1-.1-.2-.2-.3-.2h-.2c-.2,0-.3.1-.3.2l-6.1,13.5c-.1.3,0,.5.3.5h.8c.2,0,.3-.1.3-.2l1.5-3.3h7.1l1.5,3.3c0,.1.2.2.3.2h.8c.3,0,.5-.3.3-.5Zm-3.5,9.3,2.9-6.6h.2c1,2.2,1.9,4.4,2.9,6.6ZM152,63.6c-.1-.1-.3-.1-.5.1a5.94,5.94,0,0,1-3.8,1.5,5.8,5.8,0,0,1,0-11.6,5.84,5.84,0,0,1,3.8,1.5c.2.2.4.2.5,0l.5-.5c.2-.2.1-.4,0-.6a7,7,0,0,0-4.9-1.9,7.2,7.2,0,1,0,0,14.4,7,7,0,0,0,4.9-1.9c.1-.1.2-.4,0-.5Zm22.8-11.2h-8.5a.43.43,0,0,0-.4.4v.6a.43.43,0,0,0,.4.4h3.5V66.1a.43.43,0,0,0,.4.4h.8a.43.43,0,0,0,.4-.4V53.8h3.5a.43.43,0,0,0,.4-.4v-.6A.66.66,0,0,0,174.8,52.4Zm15.8,0h-.8a.43.43,0,0,0-.4.4V66.1a.43.43,0,0,0,.4.4h.8a.43.43,0,0,0,.4-.4V52.8A.43.43,0,0,0,190.6,52.4Zm27.3,0h-.8c-.2,0-.3.1-.3.2l-5,11.2h-.1l-5-11.2c0-.1-.2-.2-.3-.2h-.8c-.3,0-.5.3-.3.5l6.1,13.5c.1.1.2.2.3.2h.2c.2,0,.3-.1.3-.2l6.1-13.5C218.4,52.7,218.2,52.4,217.9,52.4Zm22.9,1.4a.43.43,0,0,0,.4-.4v-.6a.43.43,0,0,0-.4-.4h-7.9a.43.43,0,0,0-.4.4V66.1a.43.43,0,0,0,.4.4h7.9a.43.43,0,0,0,.4-.4v-.6a.43.43,0,0,0-.4-.4H234V60h5.8a.43.43,0,0,0,.4-.4V59a.43.43,0,0,0-.4-.4H234V53.7h6.8Z" transform="translate(0 -0.5)"></path></g><g id="R_copy_5" data-name="R copy 5"><path class="cls-1" d="M9.1.5C.3.5.1,8,.1,8V38.1H6.2V11.8c0-6.3,4.1-5.2,8.1-5.2H40V.5Z" transform="translate(0 -0.5)"></path></g><g id="R_copy_6" data-name="R copy 6"><path class="cls-1" d="M234.5.5V26.8c0,6.3-4.1,5.2-8.1,5.2H200.6v6.1h30.9c8.8,0,9-7.5,9-7.5V.5Z" transform="translate(0 -0.5)"></path></g></g></svg>
