<?xml version="1.0" encoding="UTF-8"?>
<svg width="1867px" height="539px" viewBox="0 0 1867 539" version="1.1" xmlns="http://www.w3.org/2000/svg" xmlns:xlink="http://www.w3.org/1999/xlink">
    <title>F5962550-2807-40A3-8184-BDB1BBBDE389</title>
    <g id="Design" stroke="none" stroke-width="1" fill="none" fill-rule="evenodd" opacity="0.12">
        <g id="Desktop_TIGHT_HOME-1" transform="translate(215.000000, -1623.000000)" stroke="#000000" stroke-width="2">
            <g id="Services-section" transform="translate(-215.000000, 1545.000000)">
                <g id="Diamond-Graphic" transform="translate(933.787879, 347.500000) rotate(-270.000000) translate(-933.787879, -347.500000) translate(664.287879, -585.500000)">
                    <path d="M83.310705,79.4917565 L455.54989,79.6256162 C456.102448,79.6265205 456.602644,79.8509622 456.964944,80.2132623 C457.327244,80.5755624 457.551686,81.075758 457.552589,81.627033 L457.552589,81.627033 L457.685752,457.890466 C457.686654,458.442242 457.463554,458.941861 457.102305,459.303622 C456.740736,459.665703 456.240826,459.889696 455.689295,459.889892 L455.689295,459.889892 L83.4501097,459.756032 C82.897552,459.755128 82.3973564,459.530686 82.0350563,459.168386 C81.6727562,458.806086 81.4483145,458.30589 81.4474114,457.754615 L81.4474114,457.754615 L81.3142479,81.4911823 C81.3133457,80.9394066 81.5364457,80.4397871 81.8976945,80.0780265 C82.2592638,79.715945 82.7591743,79.491952 83.310705,79.4917565 L83.310705,79.4917565 Z" id="Rectangle" transform="translate(269.500000, 269.690824) rotate(-315.000000) translate(-269.500000, -269.690824) "></path>
                    <path d="M83.310705,347.169963 L455.54989,347.303822 C456.102448,347.304727 456.602644,347.529168 456.964944,347.891468 C457.327244,348.253768 457.551686,348.753964 457.552589,349.305239 L457.552589,349.305239 L457.685752,725.568672 C457.686654,726.120448 457.463554,726.620067 457.102305,726.981828 C456.740736,727.343909 456.240826,727.567902 455.689295,727.568098 L455.689295,727.568098 L83.4501097,727.434238 C82.897552,727.433334 82.3973564,727.208892 82.0350563,726.846592 C81.6727562,726.484292 81.4483145,725.984096 81.4474114,725.432821 L81.4474114,725.432821 L81.3142479,349.169388 C81.3133457,348.617613 81.5364457,348.117993 81.8976945,347.756233 C82.2592638,347.394151 82.7591743,347.170158 83.310705,347.169963 L83.310705,347.169963 Z" id="Rectangle" transform="translate(269.500000, 537.369030) rotate(-315.000000) translate(-269.500000, -537.369030) "></path>
                    <path d="M83.310705,610.822932 L455.54989,610.956792 C456.102448,610.957696 456.602644,611.182138 456.964944,611.544438 C457.327244,611.906738 457.551686,612.406934 457.552589,612.958209 L457.552589,612.958209 L457.685752,989.221642 C457.686654,989.773417 457.463554,990.273037 457.102305,990.634798 C456.740736,990.996879 456.240826,991.220872 455.689295,991.221068 L455.689295,991.221068 L83.4501097,991.087208 C82.897552,991.086304 82.3973564,990.861862 82.0350563,990.499562 C81.6727562,990.137262 81.4483145,989.637066 81.4474114,989.085791 L81.4474114,989.085791 L81.3142479,612.822358 C81.3133457,612.270582 81.5364457,611.770963 81.8976945,611.409202 C82.2592638,611.047121 82.7591743,610.823128 83.310705,610.822932 L83.310705,610.822932 Z" id="Rectangle" transform="translate(269.500000, 801.022000) rotate(-315.000000) translate(-269.500000, -801.022000) "></path>
                    <path d="M83.310705,877.206659 L455.54989,877.340519 C456.102448,877.341423 456.602644,877.565865 456.964944,877.928165 C457.327244,878.290465 457.551686,878.790661 457.552589,879.341936 L457.552589,879.341936 L457.685752,1255.60537 C457.686654,1256.15714 457.463554,1256.65676 457.102305,1257.01852 C456.740736,1257.38061 456.240826,1257.6046 455.689295,1257.60479 L455.689295,1257.60479 L83.4501097,1257.47093 C82.897552,1257.47003 82.3973564,1257.24559 82.0350563,1256.88329 C81.6727562,1256.52099 81.4483145,1256.02079 81.4474114,1255.46952 L81.4474114,1255.46952 L81.3142479,879.206085 C81.3133457,878.654309 81.5364457,878.15469 81.8976945,877.792929 C82.2592638,877.430848 82.7591743,877.206855 83.310705,877.206659 L83.310705,877.206659 Z" id="Rectangle" transform="translate(269.500000, 1067.405727) rotate(-315.000000) translate(-269.500000, -1067.405727) "></path>
                    <path d="M83.310705,1138.84701 L455.54989,1138.98087 C456.102448,1138.98178 456.602644,1139.20622 456.964944,1139.56852 C457.327244,1139.93082 457.551686,1140.43101 457.552589,1140.98229 L457.552589,1140.98229 L457.685752,1517.24572 C457.686654,1517.7975 457.463554,1518.29712 457.102305,1518.65888 C456.740736,1519.02096 456.240826,1519.24495 455.689295,1519.24515 L455.689295,1519.24515 L83.4501097,1519.11129 C82.897552,1519.11038 82.3973564,1518.88594 82.0350563,1518.52364 C81.6727562,1518.16134 81.4483145,1517.66114 81.4474114,1517.10987 L81.4474114,1517.10987 L81.3142479,1140.84644 C81.3133457,1140.29466 81.5364457,1139.79504 81.8976945,1139.43328 C82.2592638,1139.0712 82.7591743,1138.84721 83.310705,1138.84701 L83.310705,1138.84701 Z" id="Rectangle" transform="translate(269.500000, 1329.046079) rotate(-315.000000) translate(-269.500000, -1329.046079) "></path>
                    <path d="M83.310705,1406.52522 L455.54989,1406.65908 C456.102448,1406.65998 456.602644,1406.88442 456.964944,1407.24672 C457.327244,1407.60902 457.551686,1408.10922 457.552589,1408.66049 L457.552589,1408.66049 L457.685752,1784.92393 C457.686654,1785.4757 457.463554,1785.97532 457.102305,1786.33708 C456.740736,1786.69916 456.240826,1786.92316 455.689295,1786.92335 L455.689295,1786.92335 L83.4501097,1786.78949 C82.897552,1786.78859 82.3973564,1786.56415 82.0350563,1786.20185 C81.6727562,1785.83955 81.4483145,1785.33935 81.4474114,1784.78808 L81.4474114,1784.78808 L81.3142479,1408.52464 C81.3133457,1407.97287 81.5364457,1407.47325 81.8976945,1407.11149 C82.2592638,1406.74941 82.7591743,1406.52541 83.310705,1406.52522 L83.310705,1406.52522 Z" id="Rectangle" transform="translate(269.500000, 1596.724285) rotate(-315.000000) translate(-269.500000, -1596.724285) "></path>
                </g>
            </g>
        </g>
    </g>
</svg>