<?xml version="1.0" standalone="no"?>
<!DOCTYPE svg PUBLIC "-//W3C//DTD SVG 20010904//EN"
 "http://www.w3.org/TR/2001/REC-SVG-20010904/DTD/svg10.dtd">
<svg version="1.0" xmlns="http://www.w3.org/2000/svg"
 width="559.000000pt" height="559.000000pt" viewBox="0 0 559.000000 559.000000"
 preserveAspectRatio="xMidYMid meet">
<metadata>
Created by potrace 1.11, written by Peter Selinger 2001-2013
</metadata>
<g transform="translate(0.000000,559.000000) scale(0.100000,-0.100000)"
fill="#000000" stroke="none">
<path d="M3 3298 c0 -2314 -3 -2197 58 -2373 99 -287 286 -503 540 -623 78
-37 233 -86 314 -101 33 -6 78 -14 100 -18 22 -4 1060 -8 2306 -10 l2267 -4
-3 2143 c-1 1179 -5 2157 -7 2173 -28 166 -111 362 -209 491 -191 253 -453
388 -841 434 -40 4 -1075 9 -2299 9 l-2227 1 1 -2122z m4228 1268 c80 -9 114
-17 176 -40 60 -21 142 -76 186 -125 87 -95 150 -298 149 -481 -1 -103 -10
-667 -11 -687 -1 -10 -395 -13 -1936 -13 -1064 0 -1935 3 -1936 8 -5 37 -2
1317 3 1325 5 9 400 12 1522 12 834 1 1518 3 1521 6 7 7 258 3 326 -5z m496
-2190 c6 -6 7 -1355 2 -1361 -2 -2 -765 -4 -1694 -5 -1684 -2 -1690 -2 -1768
19 -243 64 -362 222 -403 531 -7 53 -13 795 -7 815 3 10 3860 12 3870 1z"/>
</g>
</svg>
