<svg xmlns="http://www.w3.org/2000/svg" viewBox="0 0 430.63 62.79"><defs><style>.cls-1{fill:#c6203f;}.cls-2{fill:#231f20;}</style></defs><g id="Layer_2" data-name="Layer 2"><g id="Layer_1-2" data-name="Layer 1"><path class="cls-1" d="M11.07,26.46c-2.82,2.82-6.55,4.93-2,9.43L27.72,54.58l-4.31,4.3L2.06,37.52s-5.25-5.43,1-11.69L25,3.91,29.3,8.23Z"/><path class="cls-1" d="M419.56,36.33c2.82-2.81,6.55-4.92,2-9.43L402.91,8.22l4.31-4.31,21.35,21.36s5.25,5.43-1,11.69L405.64,58.88l-4.31-4.31Z"/><path class="cls-2" d="M84.88,51.7l3-4.38a27.64,27.64,0,0,0,16.82,5.26c6.54,0,9.74-2.71,9.74-6,0-3-1.52-5-12-7.18-10.13-2.07-15.15-5.5-15.15-11.32,0-6.23,5.5-11,16.11-11A29.11,29.11,0,0,1,119,22l-3.19,4.23a22.88,22.88,0,0,0-13-4.07c-6.54,0-8.93,2.64-8.93,5.59,0,3.35,3.35,4.78,11.32,6.46,12.84,2.79,16,6,16,12,0,6.3-6.15,11.57-17.23,11.57A34,34,0,0,1,84.88,51.7Z"/><path class="cls-2" d="M127.94,51.7l3-4.38a27.67,27.67,0,0,0,16.83,5.26c6.54,0,9.73-2.71,9.73-6,0-3-1.51-5-12-7.18-10.13-2.07-15.15-5.5-15.15-11.32,0-6.23,5.5-11,16.11-11A29.11,29.11,0,0,1,162.08,22l-3.19,4.23a22.9,22.9,0,0,0-13-4.07c-6.54,0-8.93,2.64-8.93,5.59,0,3.35,3.35,4.78,11.32,6.46,12.84,2.79,15.95,6,15.95,12,0,6.3-6.14,11.57-17.23,11.57A34.09,34.09,0,0,1,127.94,51.7Z"/><path class="cls-2" d="M170.77,37.35c0-12.6,9.41-20.26,19.78-20.26,11.17,0,17.71,7.26,17.71,18.18a26.83,26.83,0,0,1-.32,4H175.16v-5.1H204L202.35,36c0-9.17-4.54-13.72-11.64-13.72s-13.4,5.43-13.4,15.08c0,10,6.54,15.15,15.15,15.15a21.08,21.08,0,0,0,11.81-3.67l2.39,4.31a26.57,26.57,0,0,1-15,4.63C180,57.77,170.77,50.27,170.77,37.35Z"/><path class="cls-2" d="M221,18.05h5.26l.56,5.1H227c2-3.59,4.38-6.06,8.85-6.06,3.83,0,6.22,2.23,7.34,6.7,2.23-4.15,4.62-6.7,9.09-6.7,5.42,0,8.62,4.23,8.62,12V56.81h-6.54V29.53c0-4.47-1.28-6.78-4.15-6.78-2.71,0-4.15,2-6.22,6V56.81h-6.07V29.53c0-4.47-1.11-6.78-4-6.78-2.71,0-4.47,2-6.38,6V56.81H221Z"/><path class="cls-2" d="M281,52.5h-.24l-.63,4.31h-5.27V0h6.62V15.49l-.32,7.5h.24a19.07,19.07,0,0,1,13-5.9c10.45,0,16.11,7.74,16.11,19.7,0,13.24-8.29,21-17.46,21C289.21,57.77,284.58,55.77,281,52.5Zm22.73-15.63c0-8.54-3.19-14.2-10.92-14.2-3.43,0-7.42,1.76-11.33,5.74V47.72a16.21,16.21,0,0,0,10.45,4.46C298.62,52.18,303.72,46.44,303.72,36.87Z"/><path class="cls-2" d="M326.93,43.81V5.36H313.21V0h20.34V44.29c0,5.58,3,8,7.66,8a17.64,17.64,0,0,0,7.26-1.75l1.67,4.94a23.49,23.49,0,0,1-10.37,2.32C331.48,57.77,326.93,53,326.93,43.81Z"/><path class="cls-2" d="M355.8,37.35c0-12.6,9.41-20.26,19.78-20.26,11.17,0,17.71,7.26,17.71,18.18a26.83,26.83,0,0,1-.32,4H360.19v-5.1h28.87L387.39,36c0-9.17-4.55-13.72-11.65-13.72s-13.4,5.43-13.4,15.08c0,10,6.54,15.15,15.16,15.15a21.07,21.07,0,0,0,11.8-3.67l2.39,4.31a26.57,26.57,0,0,1-15,4.63C365.05,57.77,355.8,50.27,355.8,37.35Z"/><path class="cls-1" d="M50.78-4.35h0a0,0,0,0,1,0,0V61.06a6.08,6.08,0,0,1-6.08,6.08h0a0,0,0,0,1,0,0V1.73A6.08,6.08,0,0,1,50.78-4.35Z" transform="translate(18.65 -17.78) rotate(26.06)"/><path class="cls-1" d="M78,51.15,65.88,15.93a6.08,6.08,0,0,0-3.78,7.73l5,14.51H59.56a5.23,5.23,0,0,0-5.23,5.22v.86H69.16l5,14.63A6.07,6.07,0,0,0,78,51.15Z"/></g></g></svg>