<?xml version="1.0" standalone="no"?>
<!DOCTYPE svg PUBLIC "-//W3C//DTD SVG 20010904//EN"
 "http://www.w3.org/TR/2001/REC-SVG-20010904/DTD/svg10.dtd">
<svg version="1.0" xmlns="http://www.w3.org/2000/svg"
 width="700.000000pt" height="700.000000pt" viewBox="0 0 700.000000 700.000000"
 preserveAspectRatio="xMidYMid meet">
<metadata>
Created by potrace 1.11, written by Peter Selinger 2001-2013
</metadata>
<g transform="translate(0.000000,700.000000) scale(0.100000,-0.100000)"
fill="#000000" stroke="none">
<path d="M6 6771 c-6 -24 1 -5096 8 -5236 9 -189 19 -252 57 -361 125 -361
349 -628 661 -785 35 -17 121 -51 193 -74 113 -38 162 -50 310 -80 46 -9 882
-14 3426 -19 l2336 -5 -3 1717 c-4 3106 -6 3671 -15 3714 -5 24 -10 53 -13 64
-13 61 -80 242 -117 316 -38 77 -112 194 -162 256 -92 116 -271 258 -422 335
-121 61 -335 124 -520 152 -88 14 -548 17 -3087 19 -2431 3 -2648 2 -2652 -13z
m5304 -1054 c19 -4 51 -9 70 -11 65 -9 165 -45 229 -83 178 -106 278 -282 319
-563 13 -94 2 -998 -13 -1009 -5 -5 -17 -9 -25 -10 -34 -5 -4613 -6 -4710 -1
l-105 5 0 795 c0 437 2 811 5 829 4 30 9 35 35 38 17 1 819 5 1784 8 964 2
1755 6 1757 7 6 6 621 1 654 -5z m312 -2736 c206 -2 290 -5 295 -14 9 -14 11
-1674 2 -1688 -4 -7 -628 -11 -2030 -12 -1113 0 -2071 1 -2128 2 -384 12 -600
215 -671 631 -16 95 -26 1060 -11 1069 6 4 175 9 374 10 199 1 362 3 363 4 3
2 3405 0 3806 -2z"/>
</g>
</svg>
