<?xml version="1.0" encoding="UTF-8"?>
<svg width="26px" height="26px" viewBox="0 0 26 26" version="1.1" xmlns="http://www.w3.org/2000/svg" xmlns:xlink="http://www.w3.org/1999/xlink">
    <title>5FC97774-D48D-498F-8727-C11B579B1455</title>
    <defs>
        <polygon id="path-1" points="0 0 26 0 26 26 0 26"></polygon>
    </defs>
    <g id="Design" stroke="none" stroke-width="1" fill="none" fill-rule="evenodd">
        <g id="Desktop_TIGHT_HOME-1" transform="translate(-1136.000000, -3937.000000)">
            <g id="Footer" transform="translate(0.000000, 3650.000000)">
                <g id="Social" transform="translate(1079.000000, 274.000000)">
                    <g id="Instagram" transform="translate(57.000000, 13.000000)">
                        <mask id="mask-2" fill="white">
                            <use xlink:href="#path-1"></use>
                        </mask>
                        <g id="Clip-2"></g>
                        <path d="M13,2.34212684 C16.47152,2.34212684 16.88284,2.3551271 18.25408,2.41752835 C19.5208,2.47576952 20.20928,2.68741375 20.6674,2.86577732 C21.27476,3.10134203 21.7074,3.38318766 22.1624,3.83819676 C22.6174,4.29268585 22.89872,4.72585452 23.13428,5.33270665 C23.31212,5.79083582 23.52428,6.47932959 23.582,7.74607492 C23.64492,9.11786236 23.65844,9.52867057 23.65844,12.99974 C23.65844,16.4708094 23.64492,16.8821376 23.582,18.2528851 C23.52428,19.5206704 23.31212,20.2086442 23.13428,20.6672933 C22.89872,21.2741455 22.6174,21.7067941 22.1624,22.1618032 C21.7074,22.6168123 21.27476,22.898658 20.6674,23.1337027 C20.20928,23.3120662 19.5208,23.5237105 18.25408,23.5819516 C16.88284,23.6443529 16.47204,23.6578732 13,23.6578732 C9.52848,23.6578732 9.11768,23.6443529 7.74696,23.5819516 C6.47972,23.5237105 5.79176,23.3120662 5.33364,23.1337027 C4.7268,22.898658 4.29364,22.6168123 3.83864,22.1618032 C3.38364,21.7067941 3.10232,21.2741455 2.86624,20.6672933 C2.6884,20.2086442 2.47676,19.5206704 2.418,18.2528851 C2.3556,16.8821376 2.3426,16.4708094 2.3426,12.99974 C2.3426,9.52867057 2.3556,9.11786236 2.418,7.74607492 C2.47676,6.47932959 2.6884,5.79083582 2.86624,5.33270665 C3.10232,4.72585452 3.38364,4.29268585 3.83864,3.83819676 C4.29364,3.38318766 4.7268,3.10134203 5.33364,2.86577732 C5.79176,2.68741375 6.47972,2.47576952 7.74696,2.41752835 C9.11768,2.3551271 9.529,2.34212684 13,2.34212684 M13,0 C9.46972,0 9.02668,0.0140402808 7.63984,0.0774815496 C6.25664,0.140922818 5.3118,0.360367207 4.485,0.682253645 C3.6296,1.01454029 2.90524,1.45914918 2.18192,2.18144363 C1.45964,2.90425809 1.01504,3.62915258 0.68276,4.48456969 C0.3614,5.31138623 0.14144,6.25572511 0.078,7.63947279 C0.01508,9.02634053 0,9.46938939 0,12.99974 C0,16.5306106 0.01508,16.9731395 0.078,18.3600072 C0.14144,19.7437549 0.3614,20.6886138 0.68276,21.5154303 C1.01504,22.3703274 1.45964,23.0957419 2.18192,23.8180364 C2.90524,24.5403308 3.6296,24.9854597 4.485,25.3177464 C5.3118,25.6391128 6.25664,25.8585572 7.63984,25.9219984 C9.02668,25.9854397 9.46972,26 13,26 C16.5308,26 16.97384,25.9854397 18.36068,25.9219984 C19.74388,25.8585572 20.68872,25.6391128 21.51604,25.3177464 C22.3704,24.9854597 23.0958,24.5403308 23.8186,23.8180364 C24.54088,23.0957419 24.98548,22.3703274 25.31776,21.5154303 C25.63964,20.6886138 25.85908,19.7437549 25.922,18.3600072 C25.98492,16.9731395 26,16.5306106 26,12.99974 C26,9.46938939 25.98492,9.02634053 25.922,7.63947279 C25.85908,6.25572511 25.63964,5.31138623 25.31776,4.48456969 C24.98548,3.62915258 24.54088,2.90425809 23.8186,2.18144363 C23.0958,1.45914918 22.3704,1.01454029 21.51604,0.682253645 C20.68872,0.360367207 19.74388,0.140922818 18.36068,0.0774815496 C16.97384,0.0140402808 16.5308,0 13,0 M13,6.32384648 C9.3132,6.32384648 6.32424,9.31338627 6.32424,12.99974 C6.32424,16.6866137 9.3132,19.6756335 13,19.6756335 C16.68732,19.6756335 19.67576,16.6866137 19.67576,12.99974 C19.67576,9.31338627 16.68732,6.32384648 13,6.32384648 M13,17.3335067 C10.60696,17.3335067 8.66736,15.3933479 8.66736,12.99974 C8.66736,10.6061321 10.60696,8.66649333 13,8.66649333 C15.39356,8.66649333 17.33316,10.6061321 17.33316,12.99974 C17.33316,15.3933479 15.39356,17.3335067 13,17.3335067 M21.49992,6.05968119 C21.49992,5.19906398 20.80104,4.49964999 19.93992,4.49964999 C19.07776,4.49964999 18.37992,5.19906398 18.37992,6.05968119 C18.37992,6.92133843 19.07776,7.61971239 19.93992,7.61971239 C20.80104,7.61971239 21.49992,6.92133843 21.49992,6.05968119" id="Fill-1" fill="#FFFFFE" mask="url(#mask-2)"></path>
                    </g>
                </g>
            </g>
        </g>
    </g>
</svg>