<?xml version="1.0" encoding="UTF-8"?>
<svg width="28px" height="23px" viewBox="0 0 28 23" version="1.1" xmlns="http://www.w3.org/2000/svg" xmlns:xlink="http://www.w3.org/1999/xlink">
    <title>AF563DDA-C0FA-4A47-B524-533EA246D1E4</title>
    <g id="Design" stroke="none" stroke-width="1" fill="none" fill-rule="evenodd">
        <g id="Desktop_TIGHT_HOME-1" transform="translate(-1188.000000, -3938.000000)" fill="#FFFFFF" fill-rule="nonzero">
            <g id="Footer" transform="translate(0.000000, 3650.000000)">
                <g id="Social" transform="translate(1079.000000, 274.000000)">
                    <g id="Twitter" transform="translate(109.000000, 14.000000)">
                        <path d="M13.5955977,6.11836016 L13.6562923,7.11317504 L12.6447151,6.99136091 C8.9625741,6.52440705 5.74575857,4.94082418 3.01450009,2.28121708 L1.67921814,0.961564769 L1.33528194,1.93607726 C0.60694633,4.10842812 1.07227181,6.40259292 2.58963764,7.9455711 C3.39889941,8.79826956 3.21681553,8.92008359 1.82083899,8.41252506 C1.33528194,8.25010624 0.910419495,8.12829221 0.869956367,8.18919927 C0.728335615,8.3313156 1.21389266,10.1788289 1.59829198,10.9097133 C2.12431215,11.9248305 3.19658396,12.9196454 4.37001359,13.5084134 L5.36135925,13.9753673 L4.18792962,13.9956696 C3.05496321,13.9956696 3.01450009,14.015972 3.13588937,14.4423212 C3.54052026,15.7619736 5.13881224,17.1628353 6.9191881,17.7719056 L8.17354389,18.1982548 L7.08104051,18.8479299 C5.46251697,19.7818377 3.56075182,20.3096986 1.65898667,20.3503033 C0.748567179,20.3706057 0,20.451815 0,20.5127221 C0,20.7157455 2.46824835,21.8526768 3.90468802,22.2993284 C8.21400692,23.6189808 13.3325876,23.0505151 17.176581,20.7969549 C19.9078395,19.1930697 22.639098,16.0056017 23.9136852,12.9196454 C24.6015577,11.2751556 25.2894303,8.27040863 25.2894303,6.82894219 C25.2894303,5.89503438 25.3501249,5.77322034 26.4830914,4.65659133 C27.1507323,4.00691637 27.7779102,3.29633434 27.8992995,3.09331085 C28.101615,2.70756635 28.0813834,2.70756635 27.0495746,3.05270617 C25.3298933,3.66177655 25.0871149,3.5805671 25.9368397,2.66696167 C26.5640176,2.01728662 27.3125846,0.839750732 27.3125846,0.494610816 C27.3125846,0.433703845 27.0091115,0.535215495 26.6651753,0.717936599 C26.3010074,0.92096009 25.4917457,1.22549523 24.8847994,1.40821633 L23.792296,1.75335615 L22.8009503,1.08337881 C22.2546987,0.717936599 21.4858999,0.311889712 21.081269,0.190075675 C20.0494603,-0.0941571747 18.4713998,-0.0535524956 17.5407489,0.271285033 C15.0118058,1.18489055 13.4135138,3.53996242 13.5955977,6.11836016 Z" id="Combined-Shape"></path>
                    </g>
                </g>
            </g>
        </g>
    </g>
</svg>