<?xml version="1.0" encoding="UTF-8"?>
<svg width="34px" height="24px" viewBox="0 0 34 24" version="1.1" xmlns="http://www.w3.org/2000/svg" xmlns:xlink="http://www.w3.org/1999/xlink">
    <title>F7C7BF67-57E0-496A-8ADA-DE42AEA874E6</title>
    <defs>
        <polygon id="path-1" points="0 0 34 0 34 24 0 24"></polygon>
    </defs>
    <g id="Design" stroke="none" stroke-width="1" fill="none" fill-rule="evenodd">
        <g id="Desktop_TIGHT_HOME-1" transform="translate(-1241.000000, -3938.000000)">
            <g id="Footer" transform="translate(0.000000, 3650.000000)">
                <g id="Social" transform="translate(1079.000000, 274.000000)">
                    <g id="YouTube" transform="translate(162.000000, 14.000000)">
                        <mask id="mask-2" fill="white">
                            <use xlink:href="#path-1"></use>
                        </mask>
                        <g id="Clip-2"></g>
                        <path d="M13.4899031,16.4261111 L13.4883386,6.83844476 L22.6752878,11.6489812 L13.4899031,16.4261111 Z M33.6604823,5.17750684 C33.6604823,5.17750684 33.328221,2.82605652 32.3088358,1.79055515 C31.0159391,0.431444984 29.5667312,0.424730277 28.902142,0.345155987 C24.1443342,0 17.0073729,0 17.0073729,0 L16.9925939,0 C16.9925939,0 9.85579897,0 5.09782476,0.345155987 C4.43320225,0.424730277 2.98452688,0.431444984 1.69116422,1.79055515 C0.671745726,2.82605652 0.340016976,5.17750684 0.340016976,5.17750684 C0.340016976,5.17750684 0,7.93885496 0,10.7002365 L0,13.2890066 C0,16.0503213 0.340016976,18.8116694 0.340016976,18.8116694 C0.340016976,18.8116694 0.671745726,21.1631532 1.69116422,22.1986546 C2.98452688,23.5577313 4.68344675,23.5147705 5.44013847,23.6572159 C8.16017442,23.9189892 17.0000166,24 17.0000166,24 C17.0000166,24 24.1443342,23.9892097 28.902142,23.6440203 C29.5667312,23.5644794 31.0159391,23.5577313 32.3088358,22.1986546 C33.328221,21.1631532 33.6604823,18.8116694 33.6604823,18.8116694 C33.6604823,18.8116694 34,16.0503213 34,13.2890066 L34,10.7002365 C34,7.93885496 33.6604823,5.17750684 33.6604823,5.17750684 L33.6604823,5.17750684 Z" id="Fill-1" fill="#FFFFFF" mask="url(#mask-2)"></path>
                    </g>
                </g>
            </g>
        </g>
    </g>
</svg>