<?xml version="1.0" encoding="UTF-8"?>
<svg width="268px" height="927px" viewBox="0 0 268 927" version="1.1" xmlns="http://www.w3.org/2000/svg" xmlns:xlink="http://www.w3.org/1999/xlink">
    <title>A8747F24-373B-43BE-B9C6-42E65FA0C7B5</title>
    <g id="Design" stroke="none" stroke-width="1" fill="none" fill-rule="evenodd">
        <g id="Desktop_TIGHT_HOME-1" transform="translate(-1217.000000, 71.000000)" stroke="#FFFFFF" stroke-width="2">
            <g id="Diamond-Graphic" transform="translate(1217.000000, -71.000000)">
                <rect id="Rectangle" transform="translate(134.000000, 134.000000) rotate(-315.000000) translate(-134.000000, -134.000000) " x="41" y="40" width="186" height="188"></rect>
                <rect id="Rectangle" transform="translate(134.000000, 267.000000) rotate(-315.000000) translate(-134.000000, -267.000000) " x="41" y="173" width="186" height="188"></rect>
                <rect id="Rectangle" transform="translate(134.000000, 398.000000) rotate(-315.000000) translate(-134.000000, -398.000000) " x="41" y="304" width="186" height="188"></rect>
                <rect id="Rectangle" transform="translate(134.000000, 530.356818) rotate(-315.000000) translate(-134.000000, -530.356818) " x="41" y="436.356818" width="186" height="188"></rect>
                <rect id="Rectangle" transform="translate(134.000000, 660.356818) rotate(-315.000000) translate(-134.000000, -660.356818) " x="41" y="566.356818" width="186" height="188"></rect>
                <rect id="Rectangle" transform="translate(134.000000, 793.356818) rotate(-315.000000) translate(-134.000000, -793.356818) " x="41" y="699.356818" width="186" height="188"></rect>
            </g>
        </g>
    </g>
</svg>